<?xml version="1.0" encoding="UTF-8"?>
<!DOCTYPE svg PUBLIC "-//W3C//DTD SVG 1.1//EN" "http://www.w3.org/Graphics/SVG/1.1/DTD/svg11.dtd">
<svg xmlns="http://www.w3.org/2000/svg" version="1.1" width="220px" height="216px" style="shape-rendering:geometricPrecision; text-rendering:geometricPrecision; image-rendering:optimizeQuality; fill-rule:evenodd; clip-rule:evenodd" xmlns:xlink="http://www.w3.org/1999/xlink">
<g><path style="opacity:0.944" fill="#526e92" d="M 207.5,43.5 C 168.315,10.7731 124.315,0.606388 75.5,13C 52.8222,20.3698 33.9888,33.2031 19,51.5C 18.6012,51.2716 18.4346,50.9382 18.5,50.5C 37.5604,21.2905 64.5604,4.79051 99.5,1C 136.159,-2.44355 168.825,7.22312 197.5,30C 201.333,33.1667 205.167,36.3333 209,39.5C 209.773,41.3524 209.273,42.6857 207.5,43.5 Z"/></g>
<g><path style="opacity:0.994" fill="#557297" d="M 207.5,43.5 C 207.167,44.5 206.5,45.1667 205.5,45.5C 203.167,44.1667 200.833,42.8333 198.5,41.5C 166.644,15.6174 130.311,6.11743 89.5,13C 70.5491,16.3125 53.8824,24.1458 39.5,36.5C 26.2615,46.6678 15.5948,59.0011 7.5,73.5C 9.84994,65.1358 13.5166,57.4691 18.5,50.5C 18.4346,50.9382 18.6012,51.2716 19,51.5C 33.9888,33.2031 52.8222,20.3698 75.5,13C 124.315,0.606388 168.315,10.7731 207.5,43.5 Z"/></g>
<g><path style="opacity:1" fill="#58759b" d="M 198.5,41.5 C 161.412,13.8499 120.412,6.0166 75.5,18C 62.4439,22.3599 50.4439,28.5266 39.5,36.5C 53.8824,24.1458 70.5491,16.3125 89.5,13C 130.311,6.11743 166.644,15.6174 198.5,41.5 Z"/></g>
<g><path style="opacity:0.994" fill="#5a789f" d="M 198.5,41.5 C 200.833,42.8333 203.167,44.1667 205.5,45.5C 204.71,46.4013 203.71,47.0679 202.5,47.5C 157.864,11.7049 109.197,5.20486 56.5,28C 29.2827,43.9014 11.2827,67.0681 2.5,97.5C 2.43071,92.3867 3.09738,87.3867 4.5,82.5C 9.04304,74.43 13.8764,66.43 19,58.5C 25.6716,50.9958 32.5049,43.6625 39.5,36.5C 50.4439,28.5266 62.4439,22.3599 75.5,18C 120.412,6.0166 161.412,13.8499 198.5,41.5 Z"/></g>
<g><path style="opacity:0.993" fill="#6181ac" d="M 200.5,49.5 C 199.833,50.8333 198.833,51.8333 197.5,52.5C 196.457,49.9438 194.79,47.7772 192.5,46C 152.188,16.9095 108.855,11.5762 62.5,30C 23.2178,52.04 3.55117,85.54 3.5,130.5C 2.83333,125.167 2.16667,119.833 1.5,114.5C 8.84354,67.3207 35.1769,36.154 80.5,21C 125.442,10.404 165.442,19.904 200.5,49.5 Z"/></g>
<g><path style="opacity:0.993" fill="#6586b2" d="M 197.5,52.5 C 197.5,53.1667 197.167,53.5 196.5,53.5C 167.567,28.3411 133.901,18.1745 95.5,23C 53.155,30.6807 24.9883,54.8474 11,95.5C 6.9401,112.725 6.4401,130.059 9.5,147.5C 6.7456,142.177 4.7456,136.511 3.5,130.5C 3.55117,85.54 23.2178,52.04 62.5,30C 108.855,11.5762 152.188,16.9095 192.5,46C 194.79,47.7772 196.457,49.9438 197.5,52.5 Z"/></g>
<g><path style="opacity:0.98" fill="#688ab8" d="M 196.5,53.5 C 195.833,54.8333 194.833,55.8333 193.5,56.5C 192.797,54.2843 191.464,52.451 189.5,51C 174.935,39.7184 158.601,32.2184 140.5,28.5C 123.763,23.5881 107.096,23.5881 90.5,28.5C 68.4752,31.4374 49.9752,41.4374 35,58.5C 9.53388,90.0281 4.03388,124.861 18.5,163C 18.4301,163.765 18.0967,164.265 17.5,164.5C 14.0268,159.22 11.3602,153.553 9.5,147.5C 6.4401,130.059 6.9401,112.725 11,95.5C 24.9883,54.8474 53.155,30.6807 95.5,23C 133.901,18.1745 167.567,28.3411 196.5,53.5 Z"/></g>
<g><path style="opacity:0.969" fill="#6b8ebd" d="M 90.5,28.5 C 63.0624,36.2702 43.729,53.2702 32.5,79.5C 30.9256,79.9371 29.7589,80.9371 29,82.5C 8.95178,131.105 20.4518,170.938 63.5,202C 70.2271,205.613 76.8938,209.113 83.5,212.5C 55.0585,205.286 33.0585,189.286 17.5,164.5C 18.0967,164.265 18.4301,163.765 18.5,163C 4.03388,124.861 9.53388,90.0281 35,58.5C 49.9752,41.4374 68.4752,31.4374 90.5,28.5 Z"/></g>
<g><path style="opacity:1" fill="#5d7ca5" d="M 202.5,47.5 C 202.167,48.5 201.5,49.1667 200.5,49.5C 165.442,19.904 125.442,10.404 80.5,21C 35.1769,36.154 8.84354,67.3207 1.5,114.5C 1.1778,108.642 1.51114,102.975 2.5,97.5C 11.2827,67.0681 29.2827,43.9014 56.5,28C 109.197,5.20486 157.864,11.7049 202.5,47.5 Z"/></g>
<g><path style="opacity:0.893" fill="#6a8ebd" d="M 140.5,28.5 C 158.601,32.2184 174.935,39.7184 189.5,51C 191.464,52.451 192.797,54.2843 193.5,56.5C 192.686,58.2726 191.352,58.7726 189.5,58C 175.296,44.5673 158.962,34.734 140.5,28.5 Z"/></g>
<g><path style="opacity:1" fill="#58759c" d="M 39.5,36.5 C 32.5049,43.6625 25.6716,50.9958 19,58.5C 13.8764,66.43 9.04304,74.43 4.5,82.5C 4.92809,79.2154 5.92809,76.2154 7.5,73.5C 15.5948,59.0011 26.2615,46.6678 39.5,36.5 Z"/></g>
<g><path style="opacity:0.975" fill="#688ab8" d="M 32.5,79.5 C 30.7584,84.3914 29.4251,89.3914 28.5,94.5C 17.3111,125.363 22.1444,153.697 43,179.5C 70.388,209.394 103.888,219.561 143.5,210C 163.938,204.542 179.438,192.709 190,174.5C 192.844,169.317 194.677,163.817 195.5,158C 195.671,154.871 194.838,152.037 193,149.5C 192.184,148.177 191.017,147.511 189.5,147.5C 189.833,146.167 190.167,144.833 190.5,143.5C 197.567,146.968 200.401,152.634 199,160.5C 194.743,175.503 186.577,188.003 174.5,198C 168.935,201.689 163.935,205.189 159.5,208.5C 151.766,211.767 143.766,214.1 135.5,215.5C 122.833,215.5 110.167,215.5 97.5,215.5C 93.0057,214.266 88.339,213.266 83.5,212.5C 76.8938,209.113 70.2271,205.613 63.5,202C 20.4518,170.938 8.95178,131.105 29,82.5C 29.7589,80.9371 30.9256,79.9371 32.5,79.5 Z"/></g>
<g><path style="opacity:0.995" fill="#6586b2" d="M 28.5,94.5 C 27.8734,99.1408 27.5401,103.807 27.5,108.5C 21.4451,148.568 36.1118,179.068 71.5,200C 101.683,214.452 131.683,214.452 161.5,200C 177.804,190.53 188.138,176.696 192.5,158.5C 192.333,156.833 192.167,155.167 192,153.5C 191.578,151.574 190.411,150.574 188.5,150.5C 188.557,149.391 188.89,148.391 189.5,147.5C 191.017,147.511 192.184,148.177 193,149.5C 194.838,152.037 195.671,154.871 195.5,158C 194.677,163.817 192.844,169.317 190,174.5C 179.438,192.709 163.938,204.542 143.5,210C 103.888,219.561 70.388,209.394 43,179.5C 22.1444,153.697 17.3111,125.363 28.5,94.5 Z"/></g>
<g><path style="opacity:0.996" fill="#6181ac" d="M 27.5,108.5 C 27.3677,111.57 27.701,114.57 28.5,117.5C 27.4049,156.106 44.4049,183.94 79.5,201C 107.487,212.075 134.82,210.741 161.5,197C 174.354,188.817 183.52,177.651 189,163.5C 189.888,159.598 189.388,155.931 187.5,152.5C 187.328,151.508 187.662,150.842 188.5,150.5C 190.411,150.574 191.578,151.574 192,153.5C 192.167,155.167 192.333,156.833 192.5,158.5C 188.138,176.696 177.804,190.53 161.5,200C 131.683,214.452 101.683,214.452 71.5,200C 36.1118,179.068 21.4451,148.568 27.5,108.5 Z"/></g>
<g><path style="opacity:0.998" fill="#526e92" d="M 219.5,110.5 C 219.5,113.5 219.5,116.5 219.5,119.5C 217.146,119.162 214.813,118.662 212.5,118C 187.833,117.333 163.167,117.333 138.5,118C 135.278,118.199 132.278,119.032 129.5,120.5C 129.5,117.167 129.5,113.833 129.5,110.5C 159.5,110.5 189.5,110.5 219.5,110.5 Z"/></g>
<g><path style="opacity:0.998" fill="#557297" d="M 219.5,119.5 C 219.5,121.167 219.5,122.833 219.5,124.5C 217.104,122.862 214.438,121.696 211.5,121C 187.5,120.333 163.5,120.333 139.5,121C 135.82,121.348 132.486,122.515 129.5,124.5C 129.5,123.167 129.5,121.833 129.5,120.5C 132.278,119.032 135.278,118.199 138.5,118C 163.167,117.333 187.833,117.333 212.5,118C 214.813,118.662 217.146,119.162 219.5,119.5 Z"/></g>
<g><path style="opacity:1" fill="#58759b" d="M 219.5,124.5 C 219.5,124.833 219.5,125.167 219.5,125.5C 215.671,123.836 211.671,122.669 207.5,122C 183.801,121.073 160.134,121.407 136.5,123C 134.047,123.959 131.714,125.126 129.5,126.5C 129.5,125.833 129.5,125.167 129.5,124.5C 132.486,122.515 135.82,121.348 139.5,121C 163.5,120.333 187.5,120.333 211.5,121C 214.438,121.696 217.104,122.862 219.5,124.5 Z"/></g>
<g><path style="opacity:0.995" fill="#5a789f" d="M 219.5,125.5 C 219.5,126.5 219.5,127.5 219.5,128.5C 216.976,127.073 214.31,125.906 211.5,125C 187.167,124.333 162.833,124.333 138.5,125C 134.763,125.858 131.763,127.691 129.5,130.5C 129.5,129.167 129.5,127.833 129.5,126.5C 131.714,125.126 134.047,123.959 136.5,123C 160.134,121.407 183.801,121.073 207.5,122C 211.671,122.669 215.671,123.836 219.5,125.5 Z"/></g>
<g><path style="opacity:1" fill="#5e7da6" d="M 219.5,128.5 C 219.5,129.833 219.5,131.167 219.5,132.5C 219.167,132.5 218.833,132.5 218.5,132.5C 216.776,129.458 214.109,127.625 210.5,127C 186.833,126.333 163.167,126.333 139.5,127C 134.987,127.683 132.32,130.183 131.5,134.5C 129.824,133.817 129.157,132.483 129.5,130.5C 131.763,127.691 134.763,125.858 138.5,125C 162.833,124.333 187.167,124.333 211.5,125C 214.31,125.906 216.976,127.073 219.5,128.5 Z"/></g>
<g><path style="opacity:0.989" fill="#6181ab" d="M 218.5,132.5 C 218.675,134.621 218.341,136.621 217.5,138.5C 215.897,133.071 212.23,129.904 206.5,129C 184.833,128.333 163.167,128.333 141.5,129C 137.874,129.278 135.874,131.112 135.5,134.5C 134.167,134.5 132.833,134.5 131.5,134.5C 132.32,130.183 134.987,127.683 139.5,127C 163.167,126.333 186.833,126.333 210.5,127C 214.109,127.625 216.776,129.458 218.5,132.5 Z"/></g>
<g><path style="opacity:0.979" fill="#6585b2" d="M 217.5,138.5 C 216.78,143.992 215.447,149.325 213.5,154.5C 212.632,150.104 212.965,145.604 214.5,141C 214.055,136.408 211.722,133.408 207.5,132C 185.833,131.333 164.167,131.333 142.5,132C 140.68,132.2 139.347,133.034 138.5,134.5C 137.5,134.5 136.5,134.5 135.5,134.5C 135.874,131.112 137.874,129.278 141.5,129C 163.167,128.333 184.833,128.333 206.5,129C 212.23,129.904 215.897,133.071 217.5,138.5 Z"/></g>
<g><path style="opacity:0.991" fill="#5a789f" d="M 31.5,131.5 C 32.5075,134.844 33.5075,138.177 34.5,141.5C 36.2709,150.043 39.4376,158.043 44,165.5C 49.0489,170.047 53.5489,175.047 57.5,180.5C 73.958,196.386 93.7913,204.386 117,204.5C 130.919,204.384 144.085,201.217 156.5,195C 159.266,193.629 161.599,191.796 163.5,189.5C 168.825,184.676 173.991,179.676 179,174.5C 182.728,169.817 184.561,164.484 184.5,158.5C 184.557,157.391 184.89,156.391 185.5,155.5C 187.326,157.455 187.826,159.788 187,162.5C 176.807,186.044 158.973,200.21 133.5,205C 87.9521,210.651 55.1187,193.151 35,152.5C 32.0007,145.576 30.834,138.576 31.5,131.5 Z"/></g>
<g><path style="opacity:0.822" fill="#688ab8" d="M 213.5,154.5 C 210.93,161.311 207.596,167.644 203.5,173.5C 203.389,172.883 203.056,172.383 202.5,172C 207.292,161.334 209.792,150.167 210,138.5C 208.992,136.741 207.492,135.574 205.5,135C 200.692,134.92 196.359,134.753 192.5,134.5C 174.5,134.5 156.5,134.5 138.5,134.5C 139.347,133.034 140.68,132.2 142.5,132C 164.167,131.333 185.833,131.333 207.5,132C 211.722,133.408 214.055,136.408 214.5,141C 212.965,145.604 212.632,150.104 213.5,154.5 Z"/></g>
<g><path style="opacity:0.961" fill="#6b8ebd" d="M 192.5,134.5 C 196.359,134.753 200.692,134.92 205.5,135C 207.492,135.574 208.992,136.741 210,138.5C 209.792,150.167 207.292,161.334 202.5,172C 203.056,172.383 203.389,172.883 203.5,173.5C 192.989,190.339 178.322,202.006 159.5,208.5C 163.935,205.189 168.935,201.689 174.5,198C 186.577,188.003 194.743,175.503 199,160.5C 200.401,152.634 197.567,146.968 190.5,143.5C 191.634,140.63 192.3,137.63 192.5,134.5 Z"/></g>
<g><path style="opacity:0.992" fill="#567298" d="M 34.5,141.5 C 38.9926,149.143 43.9926,156.476 49.5,163.5C 49.0618,163.435 48.7284,163.601 48.5,164C 68.0893,191.325 94.756,202.991 128.5,199C 148.584,196.884 164.418,187.717 176,171.5C 176.692,170.563 176.525,169.897 175.5,169.5C 178.75,165.978 181.75,162.311 184.5,158.5C 184.561,164.484 182.728,169.817 179,174.5C 173.991,179.676 168.825,184.676 163.5,189.5C 133.547,206.278 103.214,206.778 72.5,191C 67.4419,187.481 62.4419,183.981 57.5,180.5C 53.5489,175.047 49.0489,170.047 44,165.5C 39.4376,158.043 36.2709,150.043 34.5,141.5 Z"/></g>
<g><path style="opacity:1" fill="#5d7ca5" d="M 28.5,117.5 C 28.8738,122.325 29.8738,126.992 31.5,131.5C 30.834,138.576 32.0007,145.576 35,152.5C 55.1187,193.151 87.9521,210.651 133.5,205C 158.973,200.21 176.807,186.044 187,162.5C 187.826,159.788 187.326,157.455 185.5,155.5C 185.932,154.29 186.599,153.29 187.5,152.5C 189.388,155.931 189.888,159.598 189,163.5C 183.52,177.651 174.354,188.817 161.5,197C 134.82,210.741 107.487,212.075 79.5,201C 44.4049,183.94 27.4049,156.106 28.5,117.5 Z"/></g>
<g><path style="opacity:1" fill="#58759b" d="M 57.5,180.5 C 62.4419,183.981 67.4419,187.481 72.5,191C 103.214,206.778 133.547,206.278 163.5,189.5C 161.599,191.796 159.266,193.629 156.5,195C 144.085,201.217 130.919,204.384 117,204.5C 93.7913,204.386 73.958,196.386 57.5,180.5 Z"/></g>
<g><path style="opacity:0.938" fill="#536e93" d="M 49.5,163.5 C 78.7475,191.719 112.747,199.219 151.5,186C 160.746,182.218 168.746,176.718 175.5,169.5C 176.525,169.897 176.692,170.563 176,171.5C 164.418,187.717 148.584,196.884 128.5,199C 94.756,202.991 68.0893,191.325 48.5,164C 48.7284,163.601 49.0618,163.435 49.5,163.5 Z"/></g>
</svg>
